<svg width="81" height="81" viewBox="0 0 81 81" fill="none" xmlns="http://www.w3.org/2000/svg">
<g clip-path="url(#clip0_15209_1579)">
<rect x="0.366333" y="0.166992" width="80" height="80" rx="40" fill="#40E377"/>
<path d="M22.252 19.1943H49.7808C56.4921 19.1943 59.972 22.55 59.972 28.3913C59.972 33.1762 57.7349 36.2833 53.2607 38.2097L30.3926 47.9659C29.0876 48.5252 28.2798 49.6438 28.2798 51.073C28.2798 52.6887 29.3362 53.8073 31.3869 53.8073H59.0399V61.14H30.8897C24.1784 61.14 20.7606 57.7843 20.7606 51.943C20.7606 47.1581 22.9977 44.051 27.5341 42.1246L50.2779 32.3684C51.6451 31.8091 52.4529 30.6906 52.4529 29.2613C52.4529 27.6456 51.3965 26.5271 49.2837 26.5271H22.252V19.1943Z" fill="#121212"/>
</g>
<defs>
<clipPath id="clip0_15209_1579">
<rect width="80" height="80" fill="white" transform="translate(0.366333 0.166992)"/>
</clipPath>
</defs>
</svg>
